# xmcd
#
# Track frame offsets:
#  150
#  21530
#  39002
#  50222
#  67799
#  81538
#  94912
#  109769
#  126754
#  144121
#  160845
#  176754
#  196221
#  218178
#  232788
#  252463
#  271260
#  289294
#  306302
#  322914
#
# Disc length: 4498 seconds
#
# Revision: 1
# Processed by: cddbd v1.4PL0 Copyright (c) Steve Scherf et al.
# Submitted via: AltoMP3_Maker 3.0
#
DISCID=1f119014
DTITLE=Magnús Eiríksson - Braggablús (diskur 2)
DYEAR=1900
DGENRE=
TTITLE0=Ég er á leiðinni
TTITLE1=Braggablús
TTITLE2=Ó þú
TTITLE3=Lifði og dó í Reykjavík
TTITLE4=Gleðibankinn
TTITLE5=Línudans
TTITLE6=Sönn ást
TTITLE7=Hvað um mig og þig?
TTITLE8=Vegurinn heim
TTITLE9=Sölvi Helgason
TTITLE10=Ég elska þig enn
TTITLE11=Litla systir
TTITLE12=Garún
TTITLE13=Sjómannavísa
TTITLE14=Kóngur einn dag
TTITLE15=Róninn
TTITLE16=Haltu mér fast
TTITLE17=Kallinn er kominn í land
TTITLE18=Þorparinn
TTITLE19=Ómissandi fólk
EXTD=
EXTT0=
EXTT1=
EXTT2=
EXTT3=
EXTT4=
EXTT5=
EXTT6=
EXTT7=
EXTT8=
EXTT9=
EXTT10=
EXTT11=
EXTT12=
EXTT13=
EXTT14=
EXTT15=
EXTT16=
EXTT17=
EXTT18=
EXTT19=
PLAYORDER=
